<svg width="716" height="317" viewBox="0 0 716 317" fill="none" xmlns="http://www.w3.org/2000/svg">
<path d="M234.53 40.4133C231.86 39.9933 229.36 41.8133 228.94 44.4833C228.52 47.1433 230.34 49.6533 233 50.0633C256.62 53.8033 273.77 75.0533 272.04 98.4733C271.85 101.023 273.66 103.263 276.14 103.653C276.27 103.673 276.41 103.693 276.55 103.703C279.24 103.913 281.58 101.883 281.79 99.1933C283.9 70.7433 263.14 44.9233 234.53 40.4133Z" fill="#C38729"/>
<path d="M240.02 18.8634C237.25 18.4234 234.62 20.3234 234.19 23.1034C233.75 25.8834 235.65 28.4934 238.44 28.9334C272.25 34.2834 296.79 64.7134 294.29 98.2234C294.1 100.903 295.98 103.233 298.58 103.643C298.71 103.663 298.86 103.683 299 103.693C301.81 103.903 304.25 101.803 304.46 98.9834C307.35 60.2134 279.04 25.0234 240.02 18.8634Z" fill="#E2B85C"/>
<path d="M306.97 34.4833C292.2 16.0133 271.08 3.79332 247.53 0.0633214C244.75 -0.376679 242.13 1.52332 241.7 4.30332C241.26 7.09332 243.16 9.70332 245.94 10.1433C266.97 13.4633 285.82 24.3733 299.01 40.8633C312.09 57.2233 318.46 77.5933 316.92 98.2233C316.72 100.903 318.61 103.233 321.2 103.643C321.33 103.663 321.48 103.683 321.62 103.693C324.43 103.913 326.87 101.803 327.09 98.9833C328.82 75.7733 321.68 52.8633 306.97 34.4833Z" fill="#E8CC83"/>
<path d="M667.7 143.363C667.14 143.363 666.61 143.383 666.06 143.383L644.14 174.984C648.07 173.914 652.14 173.374 656.37 173.374C674 173.374 680.37 180.833 675.5 195.743L673.19 202.833H639.68C623.88 202.833 610.59 206.693 599.82 214.423C598.88 215.103 598 215.803 597.12 216.513L647.61 143.434H609.7L551.99 232.233L551.31 143.434H513.41L514.41 164.553C513.81 163.173 513.14 161.853 512.37 160.633C505.09 149.173 492.24 143.454 473.83 143.454C455.59 143.454 439.17 149.173 424.59 160.633C415.53 167.743 407.73 177.564 401.18 190.064C404.38 176.324 402.88 164.933 396.69 155.893C390.94 147.533 380.58 143.344 365.63 143.344C348.65 143.344 332.53 149.344 317.25 161.344C312.28 149.344 301.58 143.344 285.15 143.344C270.92 143.344 257.51 148.254 244.95 158.074L249.56 143.454H214.8L169.88 287.113H205.35L232.27 201.184C235.06 192.274 239.72 185.534 246.26 180.993C251.64 177.174 257.62 175.273 264.19 175.273C270.57 175.273 275.26 177.183 278.25 180.993C281.92 185.543 282.36 192.274 279.56 201.184L252.54 287.113H288.28L315.63 200.363C318.32 191.813 323 185.273 329.66 180.723C334.95 177.093 340.75 175.273 347.06 175.273C353.37 175.273 357.99 177.183 360.93 180.993C364.54 185.543 364.93 192.274 362.11 201.184L334.93 287.113H370.67L383.74 245.893C383.66 246.763 383.59 247.613 383.56 248.423C383.08 257.333 384.92 264.963 389.09 271.323C396.48 282.963 409.26 288.784 427.43 288.784C445.79 288.784 462.37 282.963 477.19 271.323C485.41 264.963 492.12 257.333 497.35 248.423C502.1 240.433 506.66 229.614 511.03 215.974C513.24 209.074 514.87 202.703 515.95 196.833L520.22 287.113H548.35L577.62 244.743C573.57 257.684 574.13 268.184 579.39 276.214C584.73 284.404 595.4 288.493 611.41 288.493C625.59 288.493 638.71 283.953 650.78 274.853L646.77 287.134H681.43L712.06 193.553C722.98 160.093 708.2 143.363 667.7 143.363ZM475.24 215.974C469.6 233.614 463.21 245.143 456.07 250.603C450.59 254.793 444.43 256.874 437.6 256.874C430.95 256.874 426.22 254.783 423.41 250.603C419.75 245.143 420.73 233.614 426.36 215.974C431.93 198.524 438.28 187.084 445.42 181.624C450.9 177.444 456.97 175.354 463.63 175.354C470.48 175.354 475.31 177.444 478.12 181.624C481.78 187.084 480.82 198.534 475.24 215.974ZM662.77 234.754C660.4 242.024 657.58 247.303 654.34 250.573C648.4 256.573 639.37 259.583 627.24 259.583C613.67 259.583 608.66 254.124 612.2 243.214C615.69 232.493 624.05 227.113 637.27 227.113H665.25L662.77 234.754Z" fill="#005B86"/>
<path d="M99.37 200.793L77.67 198.613C68.12 197.703 64.46 193.613 66.7 186.353C69.49 177.273 77.63 172.734 91.11 172.734C104.77 172.734 114.29 175.433 119.75 180.753C126.04 171.853 132.51 164.554 138.92 158.484C139.44 157.974 139.95 157.454 140.47 156.964C141.51 155.884 142.53 154.913 143.54 153.993C134.24 147.063 119.96 143.594 100.64 143.594C85.34 143.594 71.41 147.403 58.86 155.033C45.18 163.383 36.16 174.644 31.81 188.814C24.5 212.604 34.24 225.863 61.05 228.583L82.74 230.763C92.46 231.673 96.11 236.033 93.7 243.833C90.66 253.643 80.79 258.543 64.08 258.543C47.72 258.543 36.46 254.094 30.29 245.194L0 268.363C5.67 276.533 13.29 282.164 22.87 285.254C30.5 287.614 40.94 288.793 54.2 288.793C71.81 288.793 87.24 284.963 100.5 277.353C114.66 269.173 124.07 257.563 128.75 242.493C136.53 217.404 126.73 203.513 99.37 200.793Z" fill="#005B86"/>
<path d="M174.52 145.123C183.12 145.483 190.4 138.803 190.76 130.203C191.13 121.603 184.45 114.333 175.84 113.963C167.24 113.593 159.97 120.283 159.61 128.873C159.25 137.483 165.91 144.763 174.52 145.123Z" fill="#C38729"/>
<path d="M247.54 99.3533L243.03 83.3233C242.44 81.2633 240.3 80.0633 238.24 80.6433L231.78 82.4633C229.72 83.0433 228.51 85.1833 229.1 87.2533L232.76 100.213C230.74 107.203 222.65 125.173 190.77 144.713C185.37 147.533 179.32 150.643 172.9 154.523C122.7 184.853 108.79 229.013 108.79 229.013C118.86 212.493 140.58 187.743 159.61 179.903C159.61 179.903 106.47 252.343 90.73 316.963C90.73 316.963 138.06 228.003 153.67 229.253C168.92 230.473 157.8 303.853 156.2 316.963C156.2 316.963 174.68 257.423 179.26 228.213C179.3 227.973 186.97 181.593 205.02 155.273C227.91 137.433 236.63 116.863 239.85 105.553L244.88 104.133C246.91 103.543 248.11 101.413 247.54 99.3533Z" fill="#C38729"/>
</svg>
