<svg width="49" height="49" viewBox="0 0 49 49" fill="none" xmlns="http://www.w3.org/2000/svg">
<circle cx="24.3216" cy="24.6784" r="24.3216" fill="#F2F0F2"/>
<mask id="mask0_11_73" style="mask-type:alpha" maskUnits="userSpaceOnUse" x="0" y="0" width="49" height="49">
<circle cx="24.3216" cy="24.6784" r="24.3216" fill="#FCFCFC"/>
</mask>
<g mask="url(#mask0_11_73)">
<rect x="7.90454" y="43.5276" width="33.4422" height="6.0804" fill="#D90026"/>
<rect x="7.90454" y="43.5276" width="33.4422" height="6.0804" fill="#D90026"/>
<rect x="0.60791" y="31.3668" width="48.0352" height="6.0804" fill="#D90026"/>
<rect x="0.60791" y="31.3668" width="48.0352" height="6.0804" fill="#D90026"/>
<rect x="0.60791" y="18.598" width="48.0352" height="6.0804" fill="#D90026"/>
<rect x="0.60791" y="18.598" width="48.0352" height="6.0804" fill="#D90026"/>
<rect x="0.60791" y="6.43718" width="48.0352" height="6.0804" fill="#D90026"/>
<rect x="0.60791" y="6.43718" width="48.0352" height="6.0804" fill="#D90026"/>
<rect y="0.356781" width="24.9296" height="24.3216" fill="#0052B5"/>
<path d="M20.0655 20.7261L18.2413 21.6382L18.8494 19.8141L17.6333 18.598H19.4574L20.0655 16.7739L20.9775 18.598H22.4976L21.2815 19.8141L21.8896 21.6382L20.0655 20.7261Z" fill="#EFEFEF"/>
<path d="M11.5528 20.7261L9.72865 21.6382L10.3367 19.8141L9.12061 18.598H10.9447L11.5528 16.7739L12.4648 18.598H13.9849L12.7688 19.8141L13.3769 21.6382L11.5528 20.7261Z" fill="#EFEFEF"/>
<path d="M3.04007 20.7261L1.21595 21.6382L1.82399 19.8141L0.60791 18.598H2.43203L3.04007 16.7739L3.95213 18.598H5.47223L4.25615 19.8141L4.86419 21.6382L3.04007 20.7261Z" fill="#EFEFEF"/>
<path d="M20.0655 14.0377L18.2413 14.9498L18.8494 13.1256L17.6333 11.9096H19.4574L20.0655 10.0854L20.9775 11.9096H22.4976L21.2815 13.1256L21.8896 14.9498L20.0655 14.0377Z" fill="#EFEFEF"/>
<path d="M20.0655 7.34925L18.2413 8.26131L18.8494 6.43719L17.6333 5.22111H19.4574L20.0655 3.39699L20.9775 5.22111H22.4976L21.2815 6.43719L21.8896 8.26131L20.0655 7.34925Z" fill="#EFEFEF"/>
<path d="M20.0655 0.660802L18.2413 1.57286L18.8494 -0.251258L17.6333 -1.46734H19.4574L20.0655 -3.29146L20.9775 -1.46734H22.4976L21.2815 -0.251258L21.8896 1.57286L20.0655 0.660802Z" fill="#EFEFEF"/>
<path d="M11.5528 7.34925L9.72865 8.26131L10.3367 6.43719L9.12061 5.22111H10.9447L11.5528 3.39699L12.4648 5.22111H13.9849L12.7688 6.43719L13.3769 8.26131L11.5528 7.34925Z" fill="#EFEFEF"/>
<path d="M11.5528 14.0377L9.72865 14.9498L10.3367 13.1256L9.12061 11.9096H10.9447L11.5528 10.0854L12.4648 11.9096H13.9849L12.7688 13.1256L13.3769 14.9498L11.5528 14.0377Z" fill="#EFEFEF"/>
<path d="M3.04007 14.0377L1.21595 14.9498L1.82399 13.1256L0.60791 11.9096H2.43203L3.04007 10.0854L3.95213 11.9096H5.47223L4.25615 13.1256L4.86419 14.9498L3.04007 14.0377Z" fill="#EFEFEF"/>
</g>
</svg>
