<svg width="245" height="325" viewBox="0 0 245 325" fill="none" xmlns="http://www.w3.org/2000/svg">
<g filter="url(#filter0_d_208_8)">
<path d="M147.8 40.4133C145.13 39.9933 142.63 41.8133 142.21 44.4833C141.79 47.1433 143.61 49.6533 146.27 50.0633C169.89 53.8033 187.04 75.0533 185.31 98.4733C185.12 101.023 186.93 103.263 189.41 103.653C189.54 103.673 189.68 103.693 189.82 103.703C192.51 103.913 194.85 101.883 195.06 99.1933C197.17 70.7433 176.41 44.9233 147.8 40.4133Z" fill="white"/>
<path d="M153.29 18.8634C150.52 18.4234 147.89 20.3234 147.46 23.1034C147.02 25.8834 148.92 28.4934 151.71 28.9334C185.52 34.2834 210.06 64.7134 207.56 98.2234C207.37 100.903 209.25 103.233 211.85 103.643C211.98 103.663 212.13 103.683 212.27 103.693C215.08 103.903 217.52 101.803 217.73 98.9834C220.62 60.2134 192.31 25.0234 153.29 18.8634Z" fill="white"/>
<path d="M220.24 34.4833C205.47 16.0133 184.35 3.79332 160.8 0.0633214C158.02 -0.376679 155.4 1.52332 154.97 4.30332C154.53 7.09332 156.43 9.70332 159.21 10.1433C180.24 13.4633 199.09 24.3733 212.28 40.8633C225.36 57.2233 231.73 77.5933 230.19 98.2233C229.99 100.903 231.88 103.233 234.47 103.643C234.6 103.663 234.75 103.683 234.89 103.693C237.7 103.913 240.14 101.803 240.36 98.9833C242.09 75.7733 234.95 52.8633 220.24 34.4833Z" fill="white"/>
<path d="M87.7899 145.123C96.3899 145.483 103.67 138.803 104.03 130.203C104.4 121.603 97.7199 114.333 89.1099 113.963C80.5099 113.593 73.2399 120.283 72.8799 128.873C72.5199 137.483 79.1799 144.763 87.7899 145.123Z" fill="white"/>
<path d="M160.81 99.3533L156.3 83.3233C155.71 81.2633 153.57 80.0633 151.51 80.6433L145.05 82.4633C142.99 83.0433 141.78 85.1833 142.37 87.2533L146.03 100.213C144.01 107.203 135.92 125.173 104.04 144.713C98.64 147.533 92.59 150.643 86.17 154.523C35.97 184.853 22.06 229.013 22.06 229.013C32.13 212.493 53.85 187.743 72.88 179.903C72.88 179.903 19.74 252.343 4 316.963C4 316.963 51.33 228.003 66.94 229.253C82.19 230.473 71.07 303.853 69.47 316.963C69.47 316.963 87.95 257.423 92.53 228.213C92.57 227.973 100.24 181.593 118.29 155.273C141.18 137.433 149.9 116.863 153.12 105.553L158.15 104.133C160.18 103.543 161.38 101.413 160.81 99.3533Z" fill="white"/>
</g>
<defs>
<filter id="filter0_d_208_8" x="0" y="0" width="244.614" height="324.963" filterUnits="userSpaceOnUse" color-interpolation-filters="sRGB">
<feFlood flood-opacity="0" result="BackgroundImageFix"/>
<feColorMatrix in="SourceAlpha" type="matrix" values="0 0 0 0 0 0 0 0 0 0 0 0 0 0 0 0 0 0 127 0" result="hardAlpha"/>
<feOffset dy="8"/>
<feGaussianBlur stdDeviation="4"/>
<feComposite in2="hardAlpha" operator="out"/>
<feColorMatrix type="matrix" values="0 0 0 0 0 0 0 0 0 0 0 0 0 0 0 0 0 0 0.25 0"/>
<feBlend mode="normal" in2="BackgroundImageFix" result="effect1_dropShadow_208_8"/>
<feBlend mode="normal" in="SourceGraphic" in2="effect1_dropShadow_208_8" result="shape"/>
</filter>
</defs>
</svg>
