<svg width="49" height="49" viewBox="0 0 49 49" fill="none" xmlns="http://www.w3.org/2000/svg">
<path d="M49 24.5C49 38.031 38.031 49 24.5 49C10.969 49 0 38.031 0 24.5C0 10.969 10.969 0 24.5 0C38.031 0 49 10.969 49 24.5Z" fill="#6EA644"/>
<path d="M25.1125 9.8L45.325 24.5L25.1125 39.2L4.9 24.5L25.1125 9.8Z" fill="#FFDB44"/>
<path d="M33.6875 24.5C33.6875 29.2358 29.8483 33.075 25.1125 33.075C20.3767 33.075 16.5375 29.2358 16.5375 24.5C16.5375 19.7642 20.3767 15.925 25.1125 15.925C29.8483 15.925 33.6875 19.7642 33.6875 24.5Z" fill="#0051B5"/>
<path d="M17.3627 20.825C16.8336 21.9388 16.5375 23.1848 16.5375 24.5C25.3575 23.03 30.472 27.3583 31.9267 29.7063C32.7966 28.5694 33.3885 27.2084 33.6007 25.725C28.7007 20.825 20.7337 20.4167 17.3627 20.825Z" fill="white"/>
</svg>
