<svg width="49" height="49" viewBox="0 0 49 49" fill="none" xmlns="http://www.w3.org/2000/svg">
<path d="M24.5 49C10.969 49 -5.91458e-07 38.031 0 24.5C5.91458e-07 10.969 10.969 -5.91458e-07 24.5 0C38.031 5.91458e-07 49 10.969 49 24.5C49 38.031 38.031 49 24.5 49Z" fill="#FFDB44"/>
<path d="M47.4575 15.925C43.9816 6.62317 35.0142 4.59592e-07 24.5 0C13.9858 -4.59592e-07 5.01844 6.62316 1.54254 15.925L47.4575 15.925Z" fill="#D90026"/>
<path d="M1.54254 33.075C5.01844 42.3768 13.9858 49 24.5 49C35.0142 49 43.9816 42.3768 47.4575 33.075L1.54254 33.075Z" fill="#D90026"/>
</svg>
